# xmcd
# 
# Track frame offsets:
#     150
#     13287
#     28685
#     40140
#     54302
#     71957
#     83765
#     101425
#     113977
#     126992
#     137937
#     148292
#     164982
#     181715
#     198332
#     212075
#     224927
#     241077
#     257100
#     269672
# 
# Disc length: 3836
# 
# Revision: 7
# Processed by: cddbd v1.5.2PL0 Copyright (c) Steve Scherf et al.
# Submitted via: BonkEnc v1.0.6
# 
DISCID=440efa14
DTITLE=Chitãozinho and Xororó - Raízes Sertanejas
DYEAR=1998
DGENRE=Sertanejo
TTITLE0=Fio De Cabelo
TTITLE1=Galopeira
TTITLE2=Poema Sertanejo
TTITLE3=Matriz Ou Filial
TTITLE4=Amante
TTITLE5=Saudade De Goiás
TTITLE6=Amor Proibido
TTITLE7=Amor Da Minha Vida
TTITLE8=Querida
TTITLE9=A Flor Da Noite
TTITLE10=60 Dias Apaixonado
TTITLE11=Fogão De Lenha
TTITLE12=Ela Chora Chora
TTITLE13=Terra Tombada
TTITLE14=Quem É Você
TTITLE15=Ela Fez Minha Cabeça
TTITLE16=Faz Um Ano
TTITLE17=Coração Quebrado
TTITLE18=Pago Dobrado
TTITLE19=Majestade O Sabiá (Part. Esp. Jair Rodrigues)
EXTD=
EXTT0=
EXTT1=
EXTT2=
EXTT3=
EXTT4=
EXTT5=
EXTT6=
EXTT7=
EXTT8=
EXTT9=
EXTT10=
EXTT11=
EXTT12=
EXTT13=
EXTT14=
EXTT15=
EXTT16=
EXTT17=
EXTT18=
EXTT19=
PLAYORDER=
